<svg xmlns="http://www.w3.org/2000/svg" version="1.1" xmlns:xlink="http://www.w3.org/1999/xlink" xmlns:svgjs="http://svgjs.dev/svgjs" viewBox="0 0 600 600" opacity="0.8"><path d="M196.70660400390625,50.83832550048828C203.74253209431967,71.49700673421223,93.712584177653,302.0359255472819,73.65270233154297,305.0299377441406C53.59282048543294,308.02394994099933,33.982041676839195,105.17964299519858,76.3473129272461,68.80239868164062C118.71258417765299,32.42515436808268,256.8862444559733,72.99401601155598,327.8443298339844,86.76647186279297C398.8024152119954,100.53892771402995,467.36529032389325,109.2215665181478,502.0958251953125,151.4371337890625C536.8263600667318,193.6527010599772,541.3173573811849,287.6646677652995,536.2275390625,340.05987548828125C531.1377207438151,392.455083211263,530.0898462931315,438.113764444987,471.5569152832031,465.8083801269531C413.0239842732747,493.50299580891925,247.3054059346517,511.4670867919922,185.0299530029297,506.2275695800781C122.75450007120767,500.98805236816406,123.5030008951823,488.5628967285156,97.9041976928711,434.37127685546875C72.30539449055989,380.1796569824219,14.97006607055664,245.0000089009603,31.4371337890625,181.07785034179688C47.90420150756836,117.15569178263345,189.67067591349283,30.179644266764324,196.70660400390625,50.83832550048828C203.74253209431967,71.49700673421223,93.712584177653,302.0359255472819,73.65270233154297,305.0299377441406" fill="url(&quot;#SvgjsLinearGradient1000&quot;)" stroke-width="0" stroke="hsl(340, 45%, 30%)"></path><defs><linearGradient id="SvgjsLinearGradient1000"><stop stop-color="hsl(153, 98%, 41%)" offset="0"></stop><stop stop-color="hsl(159, 98%, 39%)" offset="1"></stop></linearGradient></defs></svg>